<?xml version="1.0" encoding="utf-8"?>
<!-- Generator: Adobe Illustrator 13.0.0, SVG Export Plug-In . SVG Version: 6.00 Build 14948)  -->
<!DOCTYPE svg PUBLIC "-//W3C//DTD SVG 1.1//EN" "http://www.w3.org/Graphics/SVG/1.1/DTD/svg11.dtd">
<svg version="1.1" id="Layer_1" xmlns="http://www.w3.org/2000/svg" xmlns:xlink="http://www.w3.org/1999/xlink" x="0px" y="0px"
	 width="234px" height="129px" viewBox="0 0 234 129" enable-background="new 0 0 234 129" xml:space="preserve">
<title>Instagram icon</title>
<path fill="#F6F6F6" d="M117,0C99.478,0,97.29,0.081,90.41,0.387C83.541,0.709,78.864,1.79,74.752,3.386
	c-4.241,1.646-7.842,3.854-11.427,7.439s-5.8,7.181-7.439,11.427c-1.596,4.112-2.682,8.788-2.999,15.657
	C52.564,44.79,52.5,46.978,52.5,64.5c0,17.521,0.081,19.71,0.387,26.59c0.322,6.864,1.403,11.546,2.999,15.658
	c1.645,4.234,3.854,7.842,7.439,11.427c3.585,3.579,7.181,5.8,11.427,7.438c4.117,1.592,8.793,2.683,15.657,3
	C97.29,128.936,99.478,129,117,129c17.521,0,19.71-0.08,26.59-0.387c6.864-0.322,11.547-1.408,15.658-3
	c4.234-1.646,7.842-3.859,11.427-7.438c3.579-3.585,5.8-7.176,7.438-11.427c1.592-4.112,2.683-8.794,3-15.658
	c0.322-6.88,0.387-9.066,0.387-26.59c0-17.523-0.08-19.71-0.387-26.59c-0.322-6.864-1.408-11.551-3-15.657
	c-1.646-4.241-3.859-7.842-7.438-11.427c-3.585-3.585-7.176-5.8-11.427-7.439c-4.111-1.596-8.794-2.682-15.658-2.999
	C136.71,0.064,134.521,0,117,0z M117,11.61c17.217,0,19.27,0.086,26.068,0.382c6.289,0.295,9.701,1.338,11.971,2.23
	c3.021,1.167,5.16,2.564,7.428,4.816c2.252,2.258,3.65,4.402,4.816,7.423c0.881,2.269,1.936,5.682,2.22,11.97
	c0.308,6.805,0.376,8.847,0.376,26.069c0,17.223-0.08,19.27-0.396,26.068c-0.328,6.289-1.377,9.701-2.264,11.971
	c-1.203,3.021-2.574,5.16-4.832,7.428c-2.252,2.252-4.43,3.65-7.418,4.816c-2.258,0.881-5.725,1.936-12.013,2.22
	c-6.849,0.308-8.864,0.376-26.117,0.376c-17.259,0-19.275-0.08-26.117-0.396c-6.294-0.328-9.761-1.377-12.019-2.264
	c-3.059-1.203-5.16-2.574-7.412-4.832c-2.263-2.252-3.709-4.43-4.837-7.418c-0.887-2.258-1.93-5.725-2.258-12.013
	c-0.242-6.772-0.328-8.864-0.328-26.037c0-17.179,0.086-19.275,0.328-26.128c0.328-6.289,1.371-9.75,2.258-12.008
	c1.128-3.063,2.575-5.16,4.837-7.423c2.252-2.252,4.354-3.703,7.412-4.827c2.257-0.892,5.649-1.94,11.938-2.263
	c6.853-0.242,8.869-0.323,26.117-0.323L117,11.61L117,11.61z M117,31.379c-18.302,0-33.121,14.835-33.121,33.121
	c0,18.302,14.835,33.121,33.121,33.121c18.302,0,33.121-14.836,33.121-33.121C150.121,46.198,135.285,31.379,117,31.379z M117,86
	c-11.879,0-21.5-9.621-21.5-21.5S105.121,43,117,43s21.5,9.621,21.5,21.5S128.879,86,117,86z M159.172,30.073
	c0,4.273-3.472,7.74-7.74,7.74c-4.271,0-7.738-3.472-7.738-7.74c0-4.268,3.472-7.735,7.738-7.735
	C155.695,22.333,159.172,25.805,159.172,30.073z"/>
</svg>
