<?xml version="1.0" encoding="utf-8"?>
<!-- Generator: Adobe Illustrator 13.0.0, SVG Export Plug-In . SVG Version: 6.00 Build 14948)  -->
<!DOCTYPE svg PUBLIC "-//W3C//DTD SVG 1.1//EN" "http://www.w3.org/Graphics/SVG/1.1/DTD/svg11.dtd">
<svg version="1.1" id="Layer_1" xmlns="http://www.w3.org/2000/svg" xmlns:xlink="http://www.w3.org/1999/xlink" x="0px" y="0px"
	 width="234px" height="129px" viewBox="0 0 234 129" enable-background="new 0 0 234 129" xml:space="preserve">
<title>Instagram icon</title>
<path fill="#333333" d="M117,0C99.478,0,97.29,0.081,90.41,0.387C83.541,0.709,78.864,1.79,74.752,3.386
	c-4.241,1.645-7.842,3.854-11.427,7.439s-5.8,7.181-7.439,11.427c-1.596,4.112-2.682,8.788-2.999,15.657
	C52.564,44.79,52.5,46.978,52.5,64.5s0.081,19.71,0.387,26.59c0.322,6.864,1.403,11.546,2.999,15.658
	c1.645,4.234,3.854,7.842,7.439,11.427c3.585,3.579,7.181,5.8,11.427,7.438c4.117,1.592,8.793,2.683,15.657,3
	C97.29,128.936,99.478,129,117,129s19.71-0.08,26.59-0.387c6.864-0.322,11.546-1.408,15.658-3c4.234-1.645,7.842-3.859,11.427-7.438
	c3.579-3.585,5.8-7.176,7.438-11.427c1.592-4.112,2.683-8.794,3-15.658c0.322-6.88,0.387-9.067,0.387-26.59s-0.08-19.71-0.387-26.59
	c-0.322-6.864-1.408-11.551-3-15.657c-1.645-4.241-3.859-7.842-7.438-11.427c-3.585-3.585-7.176-5.8-11.427-7.439
	c-4.112-1.596-8.794-2.682-15.658-2.999C136.71,0.064,134.522,0,117,0z M117,11.61c17.217,0,19.27,0.086,26.068,0.382
	c6.289,0.295,9.702,1.338,11.971,2.23c3.021,1.167,5.16,2.564,7.428,4.816c2.252,2.258,3.65,4.402,4.816,7.423
	c0.881,2.269,1.936,5.682,2.22,11.97c0.307,6.805,0.376,8.847,0.376,26.069s-0.08,19.27-0.397,26.068
	c-0.327,6.289-1.376,9.702-2.263,11.971c-1.204,3.021-2.574,5.16-4.832,7.428c-2.252,2.252-4.43,3.65-7.418,4.816
	c-2.258,0.881-5.725,1.936-12.013,2.22c-6.849,0.307-8.864,0.376-26.117,0.376c-17.259,0-19.275-0.08-26.117-0.397
	c-6.294-0.327-9.761-1.376-12.019-2.263c-3.059-1.204-5.16-2.574-7.412-4.832c-2.263-2.252-3.709-4.43-4.837-7.418
	c-0.887-2.258-1.93-5.725-2.258-12.013c-0.242-6.772-0.328-8.864-0.328-26.037c0-17.179,0.086-19.275,0.328-26.128
	c0.328-6.289,1.371-9.75,2.258-12.008c1.128-3.063,2.575-5.16,4.837-7.423c2.252-2.252,4.354-3.703,7.412-4.827
	c2.257-0.892,5.649-1.94,11.938-2.263c6.853-0.242,8.869-0.323,26.117-0.323L117,11.61L117,11.61z M117,31.379
	c-18.302,0-33.121,14.835-33.121,33.121c0,18.302,14.835,33.121,33.121,33.121c18.302,0,33.121-14.836,33.121-33.121
	C150.121,46.198,135.285,31.379,117,31.379z M117,86c-11.879,0-21.5-9.621-21.5-21.5S105.121,43,117,43s21.5,9.621,21.5,21.5
	S128.879,86,117,86z M159.172,30.073c0,4.273-3.472,7.74-7.74,7.74c-4.272,0-7.739-3.472-7.739-7.74
	c0-4.268,3.472-7.735,7.739-7.735C155.695,22.333,159.172,25.805,159.172,30.073z"/>
</svg>
