<?xml version="1.0" encoding="utf-8"?>
<!-- Generator: Adobe Illustrator 13.0.0, SVG Export Plug-In . SVG Version: 6.00 Build 14948)  -->
<!DOCTYPE svg PUBLIC "-//W3C//DTD SVG 1.1//EN" "http://www.w3.org/Graphics/SVG/1.1/DTD/svg11.dtd">
<svg version="1.1" id="Layer_1" xmlns:serif="http://www.serif.com/"
	 xmlns="http://www.w3.org/2000/svg" xmlns:xlink="http://www.w3.org/1999/xlink" x="0px" y="0px" width="234px" height="129px"
	 viewBox="0 0 234 129" enable-background="new 0 0 234 129" xml:space="preserve">
<path fill="#333333" d="M171.75-0.341c5.262,0,9.546,4.166,9.546,9.304v110.418c0,5.139-4.284,9.311-9.546,9.311H61.784
	c-5.25,0-9.517-4.172-9.517-9.311V8.963c0-5.138,4.267-9.304,9.517-9.304H171.75z M162.22,109.609V75.838
	c0-16.583-3.581-29.333-22.958-29.333c-9.311,0-15.556,5.105-18.107,9.946h-0.262v-8.418h-18.345v61.577h19.115V79.153
	c0-8.033,1.52-15.816,11.478-15.816c9.821,0,9.944,9.186,9.944,16.327v29.945H162.22z M90.542,48.032H71.385v61.577h19.157V48.032z
	 M80.968,17.423c-6.146,0-11.103,4.972-11.103,11.098c0,6.127,4.956,11.099,11.103,11.099c6.122,0,11.092-4.972,11.092-11.099
	C92.061,22.395,87.09,17.423,80.968,17.423z"/>
</svg>
