<?xml version="1.0" encoding="utf-8"?>
<!-- Generator: Adobe Illustrator 13.0.0, SVG Export Plug-In . SVG Version: 6.00 Build 14948)  -->
<!DOCTYPE svg PUBLIC "-//W3C//DTD SVG 1.1//EN" "http://www.w3.org/Graphics/SVG/1.1/DTD/svg11.dtd">
<svg version="1.1" id="Layer_1" xmlns="http://www.w3.org/2000/svg" xmlns:xlink="http://www.w3.org/1999/xlink" x="0px" y="0px"
	 width="234px" height="129px" viewBox="0 0 234 129" enable-background="new 0 0 234 129" xml:space="preserve">
<title>LinkedIn icon</title>
<path fill="#FFFFFF" stroke="#000000" d="M162.402,109.93H143.3V79.996c0-7.139-0.146-16.324-9.954-16.324
	c-9.96,0-11.481,7.767-11.481,15.796v30.461h-19.103V48.375h18.35v8.391h0.248c2.563-4.838,8.799-9.944,18.113-9.944
	c19.355,0,22.936,12.739,22.936,29.321v33.787H162.402z M81.187,39.952c-6.149,0-11.089-4.977-11.089-11.099
	c0-6.117,4.945-11.089,11.089-11.089c6.127,0,11.094,4.972,11.094,11.089C92.28,34.975,87.309,39.952,81.187,39.952z M90.765,109.93
	H71.608V48.375h19.157V109.93z M171.959,0H62.019C56.757,0,52.5,4.16,52.5,9.293v110.414c0,5.139,4.257,9.293,9.519,9.293h109.924
	c5.257,0,9.557-4.154,9.557-9.293V9.293C181.5,4.16,177.2,0,171.943,0H171.959z"/>
</svg>
